<svg id="svg" version="1.1" xmlns="http://www.w3.org/2000/svg" xmlns:xlink="http://www.w3.org/1999/xlink" width="400" height="400" viewBox="0, 0, 400,400"><g id="svgg"><path id="path0" d="M202.600 16.400 C 202.464 16.620,201.474 16.800,200.400 16.800 C 199.326 16.800,198.336 16.980,198.200 17.200 C 198.064 17.420,197.333 17.600,196.576 17.600 C 195.819 17.600,195.200 17.780,195.200 18.000 C 195.200 18.220,194.660 18.400,194.000 18.400 C 193.340 18.400,192.800 18.580,192.800 18.800 C 192.800 19.020,192.260 19.200,191.600 19.200 C 190.940 19.200,190.400 19.380,190.400 19.600 C 190.400 19.820,189.961 20.000,189.424 20.000 C 188.887 20.000,188.336 20.180,188.200 20.400 C 188.064 20.620,187.603 20.800,187.176 20.800 C 186.749 20.800,186.399 20.935,186.397 21.100 C 186.393 21.459,184.456 22.400,183.720 22.400 C 183.434 22.400,183.200 22.580,183.200 22.800 C 183.200 23.020,182.930 23.200,182.600 23.200 C 182.270 23.200,182.000 23.380,182.000 23.600 C 182.000 23.820,181.730 24.000,181.400 24.000 C 181.070 24.000,180.800 24.180,180.800 24.400 C 180.800 24.620,180.440 24.800,180.000 24.800 C 179.560 24.800,179.200 24.968,179.200 25.173 C 179.200 25.378,178.860 25.654,178.445 25.786 C 178.029 25.918,177.255 26.425,176.724 26.913 C 176.193 27.401,175.048 28.333,174.179 28.983 C 172.301 30.391,166.000 36.793,166.000 37.294 C 166.000 37.486,165.461 38.219,164.802 38.922 C 164.143 39.625,163.603 40.385,163.602 40.612 C 163.601 40.838,163.250 41.276,162.821 41.585 C 162.393 41.893,162.125 42.278,162.225 42.441 C 162.325 42.603,162.181 42.979,161.904 43.276 C 161.026 44.216,158.801 48.668,159.073 48.940 C 159.216 49.083,159.123 49.200,158.867 49.200 C 158.610 49.200,158.400 49.650,158.400 50.200 C 158.400 50.750,158.220 51.200,158.000 51.200 C 157.780 51.200,157.600 51.549,157.600 51.976 C 157.600 52.403,157.420 52.864,157.200 53.000 C 156.980 53.136,156.800 53.676,156.800 54.200 C 156.800 54.724,156.620 55.264,156.400 55.400 C 156.180 55.536,156.000 56.267,156.000 57.024 C 156.000 57.781,155.820 58.400,155.600 58.400 C 155.380 58.400,155.200 59.120,155.200 60.000 C 155.200 60.880,155.020 61.600,154.800 61.600 C 154.578 61.600,154.400 62.659,154.400 63.976 C 154.400 65.283,154.220 66.464,154.000 66.600 C 153.761 66.748,153.600 69.337,153.600 73.024 C 153.600 76.875,153.751 79.200,154.000 79.200 C 154.226 79.200,154.400 80.333,154.400 81.800 C 154.400 83.267,154.574 84.400,154.800 84.400 C 155.020 84.400,155.200 85.109,155.200 85.976 C 155.200 86.843,155.380 87.664,155.600 87.800 C 155.820 87.936,156.000 88.566,156.000 89.200 C 156.000 89.834,156.180 90.464,156.400 90.600 C 156.620 90.736,156.800 91.197,156.800 91.624 C 156.800 92.051,156.980 92.400,157.200 92.400 C 157.420 92.400,157.600 92.940,157.600 93.600 C 157.600 94.260,157.780 94.800,158.000 94.800 C 158.220 94.800,158.400 95.057,158.400 95.372 C 158.400 96.287,160.646 100.887,162.186 103.126 C 162.964 104.256,163.600 105.365,163.600 105.590 C 163.600 105.816,163.780 106.000,164.000 106.000 C 164.220 106.000,164.400 106.206,164.400 106.457 C 164.400 106.708,164.940 107.429,165.600 108.060 C 166.260 108.691,166.800 109.293,166.800 109.399 C 166.800 109.763,168.212 111.308,171.885 114.963 C 173.911 116.979,175.846 119.292,176.185 120.102 C 176.931 121.887,177.142 215.200,176.400 215.200 C 176.137 215.200,176.000 226.253,176.000 247.558 C 176.000 278.938,175.975 279.995,175.189 282.543 C 172.484 291.299,161.228 293.643,155.025 286.743 C 151.871 283.235,152.000 284.888,152.000 247.954 L 152.000 215.200 131.449 215.200 C 114.322 215.200,110.821 215.293,110.433 215.760 C 110.093 216.170,109.908 225.027,109.742 248.860 L 109.516 281.400 108.493 283.723 C 104.412 292.991,91.756 293.036,86.860 283.800 L 85.800 281.800 85.800 251.567 L 85.800 221.333 84.600 222.065 C 83.940 222.468,83.181 222.798,82.913 222.799 C 81.673 222.802,67.652 229.295,63.607 231.739 C 62.841 232.202,61.806 232.527,61.308 232.462 C 60.480 232.353,57.982 233.741,57.667 234.486 C 57.593 234.658,57.323 234.800,57.067 234.800 C 56.810 234.801,56.083 235.246,55.451 235.789 C 54.819 236.333,54.004 236.872,53.640 236.987 C 53.276 237.103,52.713 237.601,52.389 238.095 C 51.710 239.130,50.564 240.186,46.431 243.589 C 37.804 250.691,28.893 260.168,23.196 268.297 C 22.234 269.671,21.150 270.889,20.787 271.004 C 20.425 271.119,19.889 271.660,19.596 272.207 C 19.304 272.753,18.915 273.200,18.732 273.200 C 18.550 273.200,18.400 273.436,18.400 273.725 C 18.400 274.013,18.085 274.598,17.700 275.025 C 17.315 275.452,16.626 276.521,16.170 277.400 C 15.006 279.643,14.239 280.966,13.968 281.200 C 13.840 281.310,13.481 281.985,13.170 282.700 C 12.859 283.415,12.469 284.000,12.302 284.000 C 12.136 284.000,12.000 284.246,12.000 284.546 C 12.000 284.847,11.190 286.803,10.200 288.893 C 9.210 290.983,8.400 293.077,8.400 293.546 C 8.400 294.016,8.220 294.400,8.000 294.400 C 7.780 294.400,7.600 294.672,7.600 295.005 C 7.600 295.338,7.420 295.968,7.200 296.405 C 6.980 296.842,6.620 297.558,6.400 297.995 C 6.180 298.432,6.000 299.141,6.000 299.571 C 6.000 300.001,5.820 300.464,5.600 300.600 C 5.380 300.736,5.200 301.287,5.200 301.824 C 5.200 302.361,5.020 302.800,4.800 302.800 C 4.580 302.800,4.400 303.329,4.400 303.976 C 4.400 304.623,4.220 305.264,4.000 305.400 C 3.780 305.536,3.600 306.267,3.600 307.024 C 3.600 307.781,3.420 308.400,3.200 308.400 C 2.980 308.400,2.800 309.120,2.800 310.000 C 2.800 310.880,2.620 311.600,2.400 311.600 C 2.180 311.600,2.000 312.309,2.000 313.176 C 2.000 314.043,1.820 314.864,1.600 315.000 C 1.380 315.136,1.200 316.191,1.200 317.344 C 1.200 318.497,0.975 319.665,0.700 319.940 C -0.025 320.665,-0.025 353.334,0.700 354.060 C 0.975 354.335,1.200 355.053,1.200 355.656 C 1.200 356.259,1.380 356.864,1.600 357.000 C 1.820 357.136,2.000 357.515,2.000 357.843 C 2.000 358.171,2.360 359.184,2.800 360.094 C 3.240 361.005,3.600 361.986,3.600 362.275 C 3.600 362.564,3.780 362.800,4.000 362.800 C 4.220 362.800,4.400 363.036,4.400 363.325 C 4.400 363.613,4.760 364.236,5.200 364.708 C 5.640 365.180,6.000 365.804,6.000 366.095 C 6.000 366.386,6.360 366.883,6.800 367.200 C 7.240 367.517,7.600 367.918,7.600 368.092 C 7.600 368.921,14.601 376.000,15.421 376.000 C 15.538 376.000,16.020 376.360,16.492 376.800 C 16.964 377.240,17.587 377.600,17.875 377.600 C 18.164 377.600,18.400 377.780,18.400 378.000 C 18.400 378.220,18.678 378.400,19.017 378.400 C 19.356 378.400,20.020 378.760,20.492 379.200 C 20.964 379.640,21.666 380.000,22.052 380.000 C 22.437 380.000,22.864 380.180,23.000 380.400 C 23.136 380.620,23.597 380.800,24.024 380.800 C 24.451 380.800,24.800 380.980,24.800 381.200 C 24.800 381.420,25.351 381.600,26.024 381.600 C 26.737 381.600,27.144 381.767,27.000 382.000 C 26.853 382.238,27.329 382.400,28.176 382.400 C 28.959 382.400,29.600 382.580,29.600 382.800 C 29.600 383.020,30.464 383.200,31.520 383.200 C 32.576 383.200,33.621 383.381,33.841 383.601 C 34.315 384.075,293.947 383.895,296.800 383.418 C 297.790 383.253,298.771 382.956,298.980 382.759 C 299.189 382.562,299.853 382.400,300.456 382.400 C 301.059 382.400,301.664 382.220,301.800 382.000 C 301.936 381.780,302.397 381.600,302.824 381.600 C 303.251 381.600,303.600 381.420,303.600 381.200 C 303.600 380.980,304.050 380.800,304.600 380.800 C 305.150 380.800,305.600 380.654,305.600 380.475 C 305.600 380.296,306.230 379.902,307.000 379.600 C 307.770 379.298,308.400 378.904,308.400 378.725 C 308.400 378.546,308.670 378.400,309.000 378.400 C 309.330 378.400,309.600 378.220,309.600 378.000 C 309.600 377.780,309.888 377.600,310.240 377.600 C 310.591 377.600,311.383 377.060,312.000 376.400 C 312.617 375.740,313.314 375.200,313.550 375.200 C 315.634 375.200,325.200 362.240,325.200 359.417 C 325.200 359.072,325.380 358.432,325.600 357.995 C 325.820 357.558,326.180 356.842,326.400 356.405 C 326.620 355.968,326.800 355.079,326.800 354.429 C 326.800 353.779,326.980 353.136,327.200 353.000 C 327.420 352.864,327.600 351.449,327.600 349.856 C 327.600 348.263,327.787 346.773,328.016 346.544 C 328.754 345.806,327.963 322.628,327.172 321.820 C 326.967 321.611,326.800 320.497,326.800 319.344 C 326.800 318.191,326.620 317.136,326.400 317.000 C 326.180 316.864,326.000 316.073,326.000 315.243 C 326.000 314.413,325.865 313.599,325.700 313.434 C 325.535 313.270,325.194 311.845,324.941 310.268 C 324.689 308.690,324.303 306.725,324.084 305.900 L 323.684 304.400 337.619 304.400 C 346.477 304.400,351.643 304.254,351.800 304.000 C 351.936 303.780,352.667 303.600,353.424 303.600 C 354.181 303.600,354.800 303.420,354.800 303.200 C 354.800 302.980,355.239 302.800,355.776 302.800 C 356.313 302.800,356.864 302.620,357.000 302.400 C 357.136 302.180,357.597 302.000,358.024 302.000 C 358.451 302.000,358.800 301.820,358.800 301.600 C 358.800 301.380,359.160 301.200,359.600 301.200 C 360.040 301.200,360.400 301.020,360.400 300.800 C 360.400 300.580,360.760 300.400,361.200 300.400 C 361.640 300.400,362.000 300.259,362.000 300.086 C 362.000 299.914,362.495 299.479,363.100 299.121 C 364.406 298.348,366.990 296.176,368.163 294.865 C 368.624 294.351,369.540 293.349,370.200 292.638 C 372.154 290.535,375.200 284.844,375.200 283.296 C 375.200 282.803,375.380 282.400,375.600 282.400 C 375.820 282.400,376.000 281.680,376.000 280.800 C 376.000 279.920,376.180 279.200,376.400 279.200 C 376.665 279.200,376.800 252.867,376.800 201.000 C 376.800 149.133,376.935 122.800,377.200 122.800 C 377.420 122.800,377.600 122.170,377.600 121.400 C 377.600 120.630,377.780 120.000,378.000 120.000 C 378.220 120.000,378.400 119.730,378.400 119.400 C 378.400 119.070,378.580 118.800,378.800 118.800 C 379.020 118.800,379.204 118.575,379.209 118.300 C 379.213 118.025,379.876 117.260,380.681 116.600 C 383.638 114.175,388.534 108.841,389.513 106.977 C 389.795 106.440,390.178 106.000,390.364 106.000 C 390.551 106.000,390.927 105.460,391.200 104.800 C 391.473 104.140,391.855 103.600,392.049 103.600 C 392.242 103.600,392.400 103.240,392.400 102.800 C 392.400 102.360,392.580 102.000,392.800 102.000 C 393.020 102.000,393.200 101.828,393.200 101.618 C 393.200 101.407,393.740 100.319,394.400 99.200 C 395.060 98.081,395.600 96.813,395.600 96.382 C 395.600 95.952,395.780 95.600,396.000 95.600 C 396.220 95.600,396.400 95.240,396.400 94.800 C 396.400 94.360,396.580 94.000,396.800 94.000 C 397.020 94.000,397.200 93.460,397.200 92.800 C 397.200 92.140,397.380 91.600,397.600 91.600 C 397.820 91.600,398.000 91.060,398.000 90.400 C 398.000 89.740,398.180 89.200,398.400 89.200 C 398.620 89.200,398.800 88.585,398.800 87.833 C 398.800 87.082,399.025 86.392,399.300 86.300 C 399.686 86.171,399.800 83.191,399.800 73.200 C 399.800 63.209,399.686 60.229,399.300 60.100 C 399.013 60.004,398.800 59.264,398.800 58.367 C 398.800 57.505,398.620 56.800,398.400 56.800 C 398.180 56.800,398.000 56.260,398.000 55.600 C 398.000 54.940,397.820 54.400,397.600 54.400 C 397.380 54.400,397.200 53.860,397.200 53.200 C 397.200 52.540,397.020 52.000,396.800 52.000 C 396.580 52.000,396.400 51.651,396.400 51.224 C 396.400 50.797,396.220 50.336,396.000 50.200 C 395.780 50.064,395.600 49.603,395.600 49.176 C 395.600 48.749,395.420 48.400,395.200 48.400 C 394.980 48.400,394.800 48.040,394.800 47.600 C 394.800 47.160,394.641 46.800,394.447 46.800 C 394.252 46.800,393.993 46.485,393.871 46.100 C 393.626 45.326,392.341 43.114,391.954 42.800 C 391.819 42.690,391.595 42.240,391.456 41.800 C 391.318 41.360,390.754 40.477,390.202 39.838 C 389.651 39.199,389.200 38.527,389.200 38.346 C 389.200 37.973,380.743 29.407,379.177 28.193 C 376.998 26.505,375.616 25.600,375.216 25.600 C 374.987 25.600,374.800 25.420,374.800 25.200 C 374.800 24.980,374.530 24.800,374.200 24.800 C 373.870 24.800,373.599 24.665,373.599 24.500 C 373.598 24.335,372.608 23.750,371.400 23.200 C 370.192 22.650,369.202 22.065,369.201 21.900 C 369.201 21.735,368.840 21.600,368.400 21.600 C 367.960 21.600,367.600 21.420,367.600 21.200 C 367.600 20.980,367.251 20.800,366.824 20.800 C 366.397 20.800,365.936 20.620,365.800 20.400 C 365.664 20.180,365.113 20.000,364.576 20.000 C 364.039 20.000,363.600 19.820,363.600 19.600 C 363.600 19.380,363.161 19.200,362.624 19.200 C 362.087 19.200,361.536 19.020,361.400 18.800 C 361.264 18.580,360.634 18.400,360.000 18.400 C 359.366 18.400,358.736 18.220,358.600 18.000 C 358.464 17.780,357.733 17.600,356.976 17.600 C 356.219 17.600,355.600 17.420,355.600 17.200 C 355.600 16.978,354.541 16.800,353.224 16.800 C 351.917 16.800,350.736 16.620,350.600 16.400 C 350.258 15.846,202.942 15.846,202.600 16.400 M347.200 38.417 C 351.750 38.881,353.563 39.217,353.827 39.644 C 353.948 39.840,354.399 40.000,354.829 40.000 C 355.259 40.000,355.923 40.157,356.305 40.350 C 356.687 40.542,357.765 41.082,358.700 41.550 C 362.534 43.467,363.824 44.297,366.057 46.286 C 370.655 50.382,373.633 54.306,375.552 58.800 C 376.068 60.010,376.651 61.313,376.846 61.695 C 377.041 62.077,377.200 62.806,377.200 63.315 C 377.200 63.824,377.363 64.411,377.561 64.620 C 378.396 65.499,378.885 75.273,378.259 78.600 C 376.666 87.076,373.769 92.279,366.690 99.377 C 360.534 105.550,358.018 109.521,356.157 116.000 C 355.443 118.487,355.401 121.997,355.205 196.800 L 355.000 275.000 354.092 276.843 C 352.655 279.759,350.548 281.387,346.954 282.356 C 345.197 282.830,315.409 283.008,314.220 282.552 C 313.865 282.416,312.678 280.787,311.582 278.931 C 296.043 252.623,271.130 231.592,244.800 222.556 C 243.590 222.141,242.420 221.593,242.200 221.338 C 241.980 221.083,241.170 220.757,240.400 220.613 C 239.367 220.420,239.157 220.461,239.600 220.770 C 239.930 221.000,240.602 221.191,241.092 221.194 C 242.434 221.203,242.418 220.711,242.098 252.800 L 241.800 282.600 240.723 284.432 C 234.979 294.202,221.973 292.572,218.440 281.640 C 218.135 280.699,218.000 270.497,218.000 248.485 L 218.000 216.690 221.092 216.970 C 222.792 217.124,224.052 217.119,223.892 216.959 C 223.490 216.556,215.662 216.003,206.700 215.743 L 199.200 215.525 199.193 168.663 C 199.187 129.931,199.086 121.242,198.616 118.583 C 197.234 110.771,194.573 106.044,187.818 99.400 C 175.231 87.020,172.082 70.420,179.738 56.800 C 180.171 56.030,180.723 55.040,180.964 54.600 C 185.221 46.828,195.703 39.813,205.121 38.432 C 208.156 37.987,342.845 37.972,347.200 38.417 M225.800 217.600 C 226.460 217.768,227.360 217.914,227.800 217.925 L 228.600 217.944 227.800 217.600 C 227.360 217.411,226.460 217.265,225.800 217.275 L 224.600 217.295 225.800 217.600 M230.000 218.400 C 230.550 218.576,231.360 218.726,231.800 218.732 L 232.600 218.744 231.800 218.400 C 231.360 218.211,230.550 218.062,230.000 218.068 L 229.000 218.080 230.000 218.400 M233.800 219.200 C 234.240 219.389,234.960 219.544,235.400 219.544 L 236.200 219.544 235.400 219.200 C 234.960 219.011,234.240 218.856,233.800 218.856 L 233.000 218.856 233.800 219.200 M236.800 220.000 C 237.130 220.213,237.760 220.378,238.200 220.366 L 239.000 220.344 238.200 220.000 C 237.004 219.486,236.005 219.486,236.800 220.000 " stroke="none" fill="#eab263" fill-rule="evenodd"></path><path id="path1" d="M205.121 38.432 C 195.703 39.813,185.221 46.828,180.964 54.600 C 180.723 55.040,180.171 56.030,179.738 56.800 C 172.082 70.420,175.231 87.020,187.818 99.400 C 194.573 106.044,197.234 110.771,198.616 118.583 C 199.086 121.242,199.187 129.931,199.193 168.663 L 199.200 215.525 206.700 215.743 C 214.003 215.954,222.176 216.526,224.600 216.995 C 225.260 217.123,226.790 217.415,228.000 217.646 C 234.136 218.815,241.663 220.788,242.200 221.368 C 242.420 221.606,243.590 222.141,244.800 222.556 C 271.130 231.592,296.043 252.623,311.582 278.931 C 312.678 280.787,313.865 282.416,314.220 282.552 C 315.409 283.008,345.197 282.830,346.954 282.356 C 350.548 281.387,352.655 279.759,354.092 276.843 L 355.000 275.000 355.205 196.800 C 355.401 121.997,355.443 118.487,356.157 116.000 C 358.018 109.521,360.534 105.550,366.690 99.377 C 373.769 92.279,376.666 87.076,378.259 78.600 C 378.885 75.273,378.396 65.499,377.561 64.620 C 377.363 64.411,377.200 63.824,377.200 63.315 C 377.200 62.806,377.041 62.077,376.846 61.695 C 376.651 61.313,376.068 60.010,375.552 58.800 C 373.633 54.306,370.655 50.382,366.057 46.286 C 363.824 44.297,362.534 43.467,358.700 41.550 C 357.765 41.082,356.687 40.542,356.305 40.350 C 355.923 40.157,355.259 40.000,354.829 40.000 C 354.399 40.000,353.948 39.840,353.827 39.644 C 353.563 39.217,351.750 38.881,347.200 38.417 C 342.845 37.972,208.156 37.987,205.121 38.432 " stroke="none" fill="#fbf0e2" fill-rule="evenodd"></path><path id="path2" d="M66.235 17.003 C 65.595 17.553,65.158 18.091,65.265 18.198 C 65.371 18.304,65.974 17.854,66.604 17.196 C 67.999 15.739,67.816 15.643,66.235 17.003 M63.792 19.354 C 62.803 20.391,61.200 22.631,61.200 22.977 C 61.200 23.117,62.025 22.219,63.032 20.981 C 64.862 18.736,65.321 17.751,63.792 19.354 M59.094 25.303 L 58.388 26.600 59.194 25.656 C 59.880 24.852,60.246 23.994,59.900 24.003 C 59.845 24.004,59.482 24.589,59.094 25.303 M383.200 31.800 C 383.946 32.570,384.647 33.200,384.757 33.200 C 384.867 33.200,384.346 32.570,383.600 31.800 C 382.854 31.030,382.153 30.400,382.043 30.400 C 381.933 30.400,382.454 31.030,383.200 31.800 M31.300 59.076 C 31.685 59.176,32.315 59.176,32.700 59.076 C 33.085 58.975,32.770 58.893,32.000 58.893 C 31.230 58.893,30.915 58.975,31.300 59.076 M102.600 59.195 C 102.160 59.387,101.046 59.556,100.124 59.572 C 99.202 59.587,98.336 59.780,98.200 60.000 C 98.064 60.220,97.571 60.400,97.105 60.400 C 96.204 60.400,93.861 61.065,92.705 61.649 C 92.323 61.842,91.648 62.000,91.205 62.000 C 90.762 62.000,90.400 62.180,90.400 62.400 C 90.400 62.620,90.040 62.800,89.600 62.800 C 89.160 62.800,88.800 62.980,88.800 63.200 C 88.800 63.420,88.566 63.600,88.280 63.600 C 87.544 63.600,85.607 64.541,85.603 64.900 C 85.601 65.065,85.280 65.200,84.888 65.200 C 84.497 65.200,83.917 65.560,83.600 66.000 C 82.955 66.895,81.761 67.065,81.488 66.300 C 81.390 66.025,81.155 65.945,80.966 66.122 C 80.778 66.299,80.874 66.598,81.180 66.788 C 81.614 67.056,81.386 67.470,80.149 68.666 C 79.276 69.510,78.003 71.010,77.320 72.000 C 75.552 74.562,68.263 82.000,67.520 82.000 C 67.178 82.000,65.870 80.830,64.615 79.400 C 61.341 75.671,60.773 75.893,62.765 80.125 C 65.526 85.993,66.821 91.294,67.608 99.958 C 68.131 105.717,68.203 105.582,64.600 105.599 C 61.873 105.613,60.110 105.974,60.772 106.383 C 61.080 106.573,61.178 110.127,61.098 118.227 C 61.029 125.104,60.845 129.435,60.645 128.900 C 60.459 128.405,60.148 128.000,59.953 128.000 C 59.759 128.000,59.600 127.730,59.600 127.400 C 59.600 127.070,59.420 126.800,59.200 126.800 C 58.980 126.800,58.800 126.543,58.800 126.229 C 58.800 125.914,58.569 125.419,58.287 125.129 C 58.005 124.838,57.333 123.970,56.795 123.200 C 55.669 121.588,50.517 116.400,50.043 116.400 C 49.868 116.400,49.201 115.950,48.562 115.400 C 47.923 114.851,47.175 114.401,46.900 114.400 C 46.625 114.400,46.400 114.242,46.400 114.049 C 46.400 113.855,45.860 113.473,45.200 113.200 C 44.540 112.927,44.000 112.545,44.000 112.351 C 44.000 112.158,43.766 112.000,43.480 112.000 C 42.744 112.000,40.807 111.059,40.803 110.700 C 40.801 110.535,40.528 110.400,40.195 110.400 C 39.862 110.400,39.277 110.226,38.895 110.013 C 37.736 109.367,34.434 108.400,33.386 108.400 C 32.844 108.400,32.400 108.220,32.400 108.000 C 32.400 107.780,31.680 107.600,30.800 107.600 C 29.920 107.600,29.200 107.420,29.200 107.200 C 29.200 106.980,28.300 106.800,27.200 106.800 C 26.100 106.800,25.200 106.620,25.200 106.400 C 25.200 106.178,24.133 106.000,22.800 106.000 C 21.467 106.000,20.400 105.822,20.400 105.600 C 20.400 105.348,17.733 105.200,13.200 105.200 L 6.000 105.200 6.000 110.200 C 6.000 113.267,6.155 115.200,6.400 115.200 C 6.635 115.200,6.800 116.600,6.800 118.600 C 6.800 120.600,6.965 122.000,7.200 122.000 C 7.420 122.000,7.600 122.900,7.600 124.000 C 7.600 125.100,7.780 126.000,8.000 126.000 C 8.220 126.000,8.400 126.609,8.400 127.354 C 8.400 128.704,9.348 132.377,10.037 133.695 C 10.237 134.077,10.400 134.752,10.400 135.195 C 10.400 135.638,10.580 136.000,10.800 136.000 C 11.020 136.000,11.200 136.450,11.200 137.000 C 11.200 137.550,11.338 138.000,11.507 138.000 C 11.676 138.000,12.242 138.990,12.764 140.200 C 13.287 141.410,13.868 142.400,14.057 142.400 C 14.246 142.400,14.400 142.760,14.400 143.200 C 14.400 143.640,14.568 144.000,14.773 144.000 C 14.978 144.000,15.262 144.366,15.404 144.813 C 15.546 145.260,16.098 146.062,16.631 146.595 C 17.164 147.128,17.600 147.766,17.600 148.014 C 17.600 148.518,23.932 154.800,24.440 154.800 C 24.618 154.800,25.184 155.220,25.697 155.734 C 26.905 156.941,30.080 158.800,30.935 158.800 C 31.301 158.800,31.600 158.980,31.600 159.200 C 31.600 159.420,31.960 159.600,32.400 159.600 C 32.840 159.600,33.200 159.780,33.200 160.000 C 33.200 160.220,33.560 160.400,34.000 160.400 C 34.440 160.400,34.800 160.547,34.800 160.728 C 34.800 160.908,35.700 161.300,36.800 161.600 C 37.900 161.900,38.800 162.292,38.800 162.472 C 38.800 162.653,39.340 162.800,40.000 162.800 C 40.660 162.800,41.200 162.980,41.200 163.200 C 41.200 163.420,41.830 163.600,42.600 163.600 C 43.370 163.600,44.000 163.780,44.000 164.000 C 44.000 164.220,44.709 164.400,45.576 164.400 C 46.443 164.400,47.264 164.580,47.400 164.800 C 47.536 165.020,48.627 165.200,49.824 165.200 C 51.021 165.200,52.000 165.380,52.000 165.600 C 52.000 165.843,53.800 166.000,56.600 166.000 L 61.200 166.000 61.200 177.767 C 61.200 186.805,61.084 189.580,60.700 189.736 C 60.337 189.884,60.323 190.029,60.650 190.270 C 60.897 190.451,61.224 191.230,61.376 192.000 C 61.528 192.770,62.176 194.750,62.817 196.400 C 65.497 203.300,67.021 210.973,67.433 219.639 L 67.710 225.478 66.405 225.739 C 65.687 225.883,64.335 226.000,63.399 226.000 C 61.211 226.000,60.903 226.429,60.737 229.701 C 60.572 232.946,60.856 233.061,64.299 231.145 C 68.933 228.567,75.149 225.630,79.800 223.822 C 82.440 222.796,85.065 221.703,85.633 221.395 C 86.201 221.087,87.371 220.657,88.233 220.440 C 89.095 220.223,90.520 219.842,91.400 219.593 C 93.859 218.896,98.685 217.889,102.800 217.212 C 108.912 216.206,110.211 215.924,110.333 215.577 C 110.407 215.370,110.703 215.200,110.992 215.200 C 111.603 215.200,117.600 209.447,117.600 208.861 C 117.600 208.644,117.745 208.407,117.923 208.333 C 118.391 208.141,120.800 204.535,120.800 204.028 C 120.800 203.793,120.935 203.600,121.101 203.600 C 121.399 203.600,122.359 201.871,123.989 198.400 C 124.454 197.410,124.941 195.835,125.072 194.900 C 125.202 193.965,125.464 193.200,125.654 193.200 C 125.844 193.200,126.000 192.660,126.000 192.000 C 126.000 191.340,126.180 190.800,126.400 190.800 C 126.620 190.800,126.800 190.271,126.800 189.624 C 126.800 188.977,126.980 188.336,127.200 188.200 C 127.420 188.064,127.600 187.243,127.600 186.376 C 127.600 185.509,127.780 184.800,128.000 184.800 C 128.222 184.800,128.400 183.744,128.400 182.433 C 128.400 181.132,128.569 180.007,128.776 179.933 C 129.080 179.825,129.355 171.507,129.227 166.279 L 129.200 165.159 123.500 165.364 C 115.205 165.664,111.200 166.011,111.200 166.430 C 111.200 166.634,110.311 166.800,109.224 166.800 C 108.137 166.800,107.136 166.980,107.000 167.200 C 106.864 167.420,106.234 167.600,105.600 167.600 C 104.966 167.600,104.336 167.780,104.200 168.000 C 104.064 168.220,103.434 168.400,102.800 168.400 C 102.166 168.400,101.536 168.580,101.400 168.800 C 101.264 169.020,100.623 169.200,99.976 169.200 C 99.329 169.200,98.800 169.380,98.800 169.600 C 98.800 169.820,98.350 170.000,97.800 170.000 C 97.250 170.000,96.800 170.180,96.800 170.400 C 96.800 170.620,96.547 170.800,96.238 170.800 C 95.572 170.800,92.259 172.468,92.067 172.900 C 91.993 173.065,91.588 173.200,91.167 173.200 C 90.745 173.200,90.400 173.359,90.400 173.554 C 90.400 173.749,89.815 174.209,89.100 174.576 C 88.385 174.944,87.206 175.616,86.479 176.071 C 84.697 177.187,78.739 183.133,78.032 184.501 C 77.720 185.105,77.346 185.600,77.201 185.600 C 77.056 185.600,76.501 186.531,75.968 187.669 L 75.000 189.738 74.800 177.769 L 74.600 165.800 71.300 165.684 L 68.000 165.568 68.000 161.561 C 68.000 154.339,69.722 144.733,72.260 137.800 C 72.824 136.260,73.625 133.920,74.039 132.600 C 74.453 131.280,74.974 129.887,75.196 129.505 C 75.714 128.615,75.714 128.006,75.196 128.800 C 74.937 129.197,74.838 125.472,74.902 117.800 L 75.000 106.200 78.400 105.939 C 80.270 105.796,82.700 105.471,83.800 105.217 C 84.900 104.963,86.387 104.656,87.104 104.534 C 87.821 104.412,88.506 104.151,88.627 103.956 C 88.748 103.760,89.276 103.600,89.800 103.600 C 90.324 103.600,90.864 103.420,91.000 103.200 C 91.136 102.980,91.687 102.800,92.224 102.800 C 92.761 102.800,93.200 102.620,93.200 102.400 C 93.200 102.180,93.560 102.000,94.000 102.000 C 94.440 102.000,94.800 101.820,94.800 101.600 C 94.800 101.380,95.160 101.200,95.600 101.200 C 96.040 101.200,96.400 101.020,96.400 100.800 C 96.400 100.580,96.760 100.400,97.200 100.400 C 97.640 100.400,98.000 100.250,98.000 100.068 C 98.000 99.885,98.489 99.480,99.088 99.168 C 100.745 98.303,105.352 94.085,107.000 91.924 C 108.047 90.551,109.600 87.974,109.600 87.609 C 109.600 87.384,109.780 87.200,110.000 87.200 C 110.220 87.200,110.400 86.840,110.400 86.400 C 110.400 85.960,110.580 85.600,110.800 85.600 C 111.020 85.600,111.200 85.251,111.200 84.824 C 111.200 84.397,111.380 83.936,111.600 83.800 C 111.820 83.664,112.000 83.113,112.000 82.576 C 112.000 82.039,112.180 81.600,112.400 81.600 C 112.620 81.600,112.800 81.060,112.800 80.400 C 112.800 79.740,112.980 79.200,113.200 79.200 C 113.420 79.200,113.600 78.671,113.600 78.024 C 113.600 77.377,113.780 76.736,114.000 76.600 C 114.220 76.464,114.400 75.553,114.400 74.576 C 114.400 73.599,114.580 72.800,114.800 72.800 C 115.032 72.800,115.200 71.493,115.200 69.680 C 115.200 67.964,115.388 66.372,115.617 66.143 C 115.861 65.899,115.986 64.326,115.917 62.363 L 115.800 59.000 109.600 58.923 C 106.190 58.881,103.040 59.003,102.600 59.195 M54.227 67.630 C 55.081 68.574,55.298 68.599,55.129 67.738 C 55.058 67.374,54.669 67.027,54.265 66.968 C 53.566 66.866,53.564 66.897,54.227 67.630 M129.613 109.200 C 129.321 109.933,129.388 111.172,129.703 110.857 C 129.908 110.652,129.989 110.151,129.884 109.742 C 129.779 109.334,129.657 109.090,129.613 109.200 M115.500 150.588 C 114.491 151.975,114.639 152.197,115.800 151.036 C 116.823 150.013,117.031 149.590,116.500 149.613 C 116.335 149.619,115.885 150.058,115.500 150.588 M113.054 153.055 C 112.423 153.597,111.981 154.115,112.071 154.204 C 112.161 154.294,112.751 153.924,113.382 153.382 C 114.013 152.840,114.455 152.322,114.365 152.232 C 114.274 152.142,113.684 152.512,113.054 153.055 M17.800 165.600 C 18.901 166.073,19.292 166.073,19.000 165.600 C 18.864 165.380,18.358 165.213,17.876 165.228 C 17.031 165.255,17.029 165.269,17.800 165.600 M52.427 179.100 C 53.589 180.145,55.048 181.702,55.670 182.560 C 56.291 183.418,56.800 183.919,56.800 183.674 C 56.800 182.834,51.479 177.236,50.657 177.211 C 50.468 177.205,51.264 178.055,52.427 179.100 M8.812 190.800 C 8.812 191.490,9.480 192.670,9.711 192.388 C 9.796 192.285,9.629 191.750,9.339 191.200 C 9.048 190.649,8.812 190.469,8.812 190.800 M9.318 225.498 C 11.033 225.573,13.733 225.572,15.318 225.497 C 16.903 225.421,15.500 225.359,12.200 225.360 C 8.900 225.361,7.603 225.422,9.318 225.498 " stroke="none" fill="#f4c404" fill-rule="evenodd"></path><path id="path3" d="M66.110 17.625 C 65.180 18.514,63.741 20.087,62.911 21.121 C 62.082 22.154,61.130 23.270,60.795 23.600 C 59.842 24.542,56.000 30.282,56.000 30.765 C 56.000 31.004,55.820 31.200,55.600 31.200 C 55.380 31.200,55.200 31.545,55.200 31.967 C 55.200 32.388,55.065 32.793,54.900 32.867 C 54.401 33.088,52.800 36.422,52.800 37.238 C 52.800 37.657,52.620 38.000,52.400 38.000 C 52.180 38.000,52.000 38.540,52.000 39.200 C 52.000 39.860,51.838 40.400,51.640 40.400 C 50.803 40.400,49.985 54.945,50.778 55.738 C 51.010 55.970,51.200 56.595,51.200 57.127 C 51.200 58.267,52.863 63.340,53.299 63.533 C 53.465 63.607,53.600 64.012,53.600 64.433 C 53.600 64.855,53.780 65.200,54.000 65.200 C 54.220 65.200,54.400 65.549,54.400 65.976 C 54.400 66.403,54.580 66.864,54.800 67.000 C 55.020 67.136,55.200 67.538,55.200 67.893 C 55.200 68.449,55.075 68.431,54.300 67.763 C 51.294 65.167,46.503 62.731,41.400 61.203 C 36.140 59.627,35.309 59.467,30.000 59.009 C 28.570 58.886,26.354 58.688,25.075 58.570 C 23.782 58.450,22.139 58.556,21.375 58.808 L 20.000 59.262 20.000 63.407 C 20.000 65.740,20.175 67.661,20.400 67.800 C 20.620 67.936,20.800 69.106,20.800 70.400 C 20.800 71.694,20.980 72.864,21.200 73.000 C 21.420 73.136,21.600 74.047,21.600 75.024 C 21.600 76.001,21.780 76.800,22.000 76.800 C 22.220 76.800,22.400 77.329,22.400 77.976 C 22.400 78.623,22.580 79.264,22.800 79.400 C 23.020 79.536,23.200 79.999,23.200 80.429 C 23.200 81.184,23.344 81.574,24.338 83.495 C 24.592 83.987,24.800 84.662,24.800 84.995 C 24.800 85.328,24.960 85.600,25.157 85.600 C 25.353 85.600,25.616 86.009,25.741 86.508 C 25.941 87.303,27.818 90.426,28.993 91.917 C 30.012 93.212,33.107 96.400,33.344 96.400 C 33.489 96.400,34.172 96.940,34.863 97.600 C 35.554 98.260,36.362 98.800,36.659 98.800 C 36.957 98.800,37.200 98.961,37.200 99.158 C 37.200 99.574,43.650 102.800,44.481 102.800 C 44.788 102.800,45.211 102.949,45.420 103.130 C 45.976 103.614,49.941 104.691,54.527 105.606 C 56.933 106.085,66.644 105.791,67.584 105.210 C 68.339 104.744,67.202 93.570,65.936 89.000 C 65.004 85.636,63.887 82.509,62.765 80.125 C 60.773 75.893,61.341 75.671,64.615 79.400 C 65.870 80.830,67.178 82.000,67.520 82.000 C 68.266 82.000,75.564 74.548,77.314 72.000 C 77.994 71.010,78.876 69.909,79.275 69.553 C 79.674 69.197,80.000 68.612,80.000 68.253 C 80.000 67.894,80.180 67.600,80.400 67.600 C 80.620 67.600,80.800 67.240,80.800 66.800 C 80.800 66.360,80.980 66.000,81.200 66.000 C 81.420 66.000,81.600 65.640,81.600 65.200 C 81.600 64.760,81.780 64.400,82.000 64.400 C 82.220 64.400,82.400 64.128,82.400 63.795 C 82.400 63.462,82.580 62.832,82.800 62.395 C 83.020 61.958,83.380 61.242,83.600 60.805 C 83.820 60.368,84.000 59.659,84.000 59.229 C 84.000 58.799,84.180 58.336,84.400 58.200 C 84.620 58.064,84.800 57.254,84.800 56.400 C 84.800 55.546,84.980 54.736,85.200 54.600 C 85.430 54.458,85.600 52.337,85.600 49.600 C 85.600 46.863,85.430 44.742,85.200 44.600 C 84.980 44.464,84.800 43.791,84.800 43.105 C 84.800 41.862,84.218 39.626,83.551 38.305 C 83.358 37.923,83.200 37.259,83.200 36.829 C 83.200 36.399,83.020 35.936,82.800 35.800 C 82.580 35.664,82.400 35.218,82.400 34.810 C 82.400 34.401,82.265 34.007,82.100 33.933 C 81.935 33.860,81.352 32.900,80.805 31.800 C 80.258 30.700,79.718 29.710,79.605 29.600 C 79.491 29.490,79.145 28.908,78.835 28.307 C 78.526 27.705,77.941 26.858,77.536 26.423 C 77.131 25.989,76.800 25.512,76.800 25.364 C 76.800 25.215,76.468 24.803,76.063 24.447 C 75.657 24.091,75.103 23.380,74.830 22.866 C 73.860 21.034,69.017 15.997,68.235 16.004 C 67.996 16.007,67.039 16.736,66.110 17.625 M116.800 105.600 C 116.800 105.831,115.533 106.000,113.800 106.000 C 112.067 106.000,110.800 106.169,110.800 106.400 C 110.800 106.620,110.001 106.800,109.024 106.800 C 108.047 106.800,107.136 106.980,107.000 107.200 C 106.864 107.420,106.144 107.600,105.400 107.600 C 104.656 107.600,103.936 107.780,103.800 108.000 C 103.664 108.220,103.023 108.400,102.376 108.400 C 101.729 108.400,101.200 108.591,101.200 108.824 C 101.200 109.057,101.053 109.156,100.873 109.045 C 100.166 108.608,90.056 113.152,89.667 114.082 C 89.593 114.257,89.323 114.400,89.067 114.400 C 88.810 114.401,88.077 114.851,87.438 115.400 C 86.799 115.950,86.163 116.400,86.025 116.400 C 85.505 116.400,80.074 121.948,78.845 123.735 C 78.139 124.761,77.411 125.600,77.227 125.600 C 76.899 125.600,76.272 127.112,76.357 127.700 C 76.381 127.865,76.264 128.000,76.098 128.000 C 75.721 128.000,75.059 129.493,74.058 132.600 C 73.633 133.920,72.824 136.260,72.260 137.800 C 69.729 144.715,68.000 154.339,68.000 161.516 L 68.000 165.477 72.863 165.739 C 79.692 166.106,82.713 166.064,83.000 165.600 C 83.136 165.380,84.227 165.200,85.424 165.200 C 86.621 165.200,87.600 165.020,87.600 164.800 C 87.600 164.580,88.309 164.400,89.176 164.400 C 90.043 164.400,90.864 164.220,91.000 164.000 C 91.136 163.780,91.867 163.600,92.624 163.600 C 93.381 163.600,94.000 163.420,94.000 163.200 C 94.000 162.980,94.529 162.800,95.176 162.800 C 95.823 162.800,96.464 162.620,96.600 162.400 C 96.736 162.180,97.287 162.000,97.824 162.000 C 98.361 162.000,98.800 161.820,98.800 161.600 C 98.800 161.380,99.149 161.200,99.576 161.200 C 100.003 161.200,100.464 161.020,100.600 160.800 C 100.736 160.580,101.197 160.400,101.624 160.400 C 102.051 160.400,102.400 160.220,102.400 160.000 C 102.400 159.780,102.760 159.600,103.200 159.600 C 103.640 159.600,104.000 159.440,104.000 159.243 C 104.000 159.047,104.495 158.766,105.100 158.618 C 105.705 158.471,106.864 157.821,107.677 157.175 C 108.489 156.529,109.308 156.000,109.498 156.000 C 109.814 156.000,110.393 155.514,113.851 152.349 C 115.392 150.938,117.233 148.845,118.402 147.172 C 118.930 146.418,119.474 145.710,119.611 145.600 C 119.748 145.490,120.296 144.590,120.830 143.600 C 121.363 142.610,121.899 141.710,122.021 141.600 C 122.142 141.490,122.565 140.680,122.960 139.800 C 123.356 138.920,124.021 137.468,124.440 136.574 C 124.858 135.679,125.200 134.565,125.200 134.097 C 125.200 133.630,125.380 133.136,125.600 133.000 C 125.820 132.864,126.000 132.324,126.000 131.800 C 126.000 131.276,126.180 130.736,126.400 130.600 C 126.620 130.464,126.800 129.733,126.800 128.976 C 126.800 128.219,126.980 127.600,127.200 127.600 C 127.420 127.600,127.600 126.779,127.600 125.776 C 127.600 124.663,127.756 124.049,128.000 124.200 C 128.248 124.353,128.400 123.631,128.400 122.304 C 128.400 121.125,128.567 119.989,128.772 119.780 C 128.977 119.571,129.182 117.240,129.229 114.600 C 129.276 111.960,129.409 109.634,129.524 109.430 C 129.822 108.904,129.748 106.728,129.405 105.900 C 129.069 105.092,116.800 104.800,116.800 105.600 M6.475 165.529 C 5.884 165.922,6.028 172.293,6.765 178.400 C 7.587 185.215,7.684 185.807,8.039 186.180 C 8.237 186.389,8.400 187.056,8.400 187.661 C 8.400 188.267,8.565 189.176,8.767 189.681 C 9.571 191.690,9.723 192.221,9.639 192.730 C 9.591 193.021,9.720 193.471,9.927 193.730 C 10.133 193.988,10.429 194.650,10.585 195.200 C 11.034 196.790,15.121 204.962,15.896 205.821 C 16.283 206.250,17.101 207.272,17.714 208.092 C 19.245 210.141,23.105 214.013,24.800 215.199 C 25.570 215.738,26.549 216.498,26.975 216.889 C 27.402 217.280,27.987 217.600,28.275 217.600 C 28.564 217.600,28.800 217.780,28.800 218.000 C 28.800 218.220,29.160 218.400,29.600 218.400 C 30.040 218.400,30.400 218.580,30.400 218.800 C 30.400 219.020,30.670 219.200,31.000 219.200 C 31.330 219.200,31.600 219.380,31.600 219.600 C 31.600 219.820,31.924 220.000,32.320 220.000 C 32.716 220.000,33.211 220.161,33.420 220.358 C 33.830 220.744,41.299 223.588,42.522 223.824 C 42.930 223.902,43.595 224.072,44.000 224.200 C 45.494 224.674,46.655 224.884,48.906 225.088 C 50.175 225.203,51.311 225.455,51.430 225.649 C 51.549 225.842,53.248 226.000,55.205 226.000 C 57.161 226.000,59.226 226.211,59.792 226.469 C 60.580 226.828,60.932 226.828,61.291 226.469 C 61.549 226.211,62.511 226.000,63.430 226.000 C 64.348 226.000,65.687 225.883,66.405 225.739 L 67.710 225.478 67.433 219.639 C 67.020 210.951,65.487 203.244,62.809 196.400 C 62.163 194.750,61.517 192.725,61.373 191.900 C 61.229 191.075,60.951 190.400,60.755 190.400 C 60.560 190.400,60.400 190.055,60.400 189.633 C 60.400 189.212,60.265 188.807,60.100 188.733 C 59.935 188.660,59.440 187.951,59.000 187.157 C 57.712 184.835,56.027 182.800,52.743 179.600 C 48.987 175.941,48.575 175.600,47.905 175.600 C 47.614 175.600,47.117 175.240,46.800 174.800 C 46.483 174.360,45.903 174.000,45.512 174.000 C 45.120 174.000,44.800 173.820,44.800 173.600 C 44.800 173.380,44.440 173.200,44.000 173.200 C 43.560 173.200,43.199 173.065,43.197 172.900 C 43.193 172.541,41.256 171.600,40.520 171.600 C 40.234 171.600,40.000 171.420,40.000 171.200 C 40.000 170.980,39.728 170.800,39.395 170.800 C 39.062 170.800,38.477 170.641,38.095 170.447 C 37.713 170.252,36.860 169.871,36.200 169.600 C 35.540 169.329,34.687 168.948,34.305 168.753 C 33.923 168.559,33.169 168.400,32.629 168.400 C 32.089 168.400,31.536 168.220,31.400 168.000 C 31.264 167.780,30.544 167.600,29.800 167.600 C 29.056 167.600,28.336 167.420,28.200 167.200 C 28.064 166.980,27.189 166.800,26.256 166.800 C 25.323 166.800,24.389 166.634,24.180 166.431 C 23.464 165.737,7.393 164.917,6.475 165.529 M6.000 230.776 C 6.000 233.796,6.167 236.056,6.400 236.200 C 6.620 236.336,6.800 237.686,6.800 239.200 C 6.800 240.714,6.980 242.064,7.200 242.200 C 7.420 242.336,7.600 243.337,7.600 244.424 C 7.600 245.511,7.780 246.400,8.000 246.400 C 8.220 246.400,8.400 246.913,8.400 247.540 C 8.400 248.542,8.757 250.002,9.491 252.000 C 9.612 252.330,9.751 252.870,9.799 253.200 C 9.923 254.051,11.254 257.326,11.660 257.780 C 11.847 257.989,12.000 258.484,12.000 258.880 C 12.000 259.276,12.180 259.600,12.400 259.600 C 12.620 259.600,12.800 259.834,12.800 260.120 C 12.800 260.856,13.741 262.793,14.100 262.797 C 14.265 262.799,14.400 262.993,14.400 263.228 C 14.400 263.874,16.779 267.268,19.230 270.119 C 20.525 271.625,21.008 271.393,23.293 268.166 C 29.863 258.890,43.377 245.034,50.241 240.536 C 51.703 239.578,52.212 238.456,51.336 238.120 C 50.952 237.973,50.108 237.346,49.460 236.726 C 48.812 236.107,48.121 235.600,47.924 235.600 C 47.727 235.600,47.180 235.240,46.708 234.800 C 46.236 234.360,45.613 234.000,45.325 234.000 C 45.036 234.000,44.800 233.820,44.800 233.600 C 44.800 233.380,44.455 233.200,44.033 233.200 C 43.612 233.200,43.207 233.065,43.133 232.900 C 42.941 232.468,39.628 230.800,38.962 230.800 C 38.653 230.800,38.400 230.620,38.400 230.400 C 38.400 230.180,37.986 230.000,37.480 230.000 C 36.974 230.000,36.389 229.851,36.180 229.670 C 35.971 229.488,34.990 229.109,34.000 228.828 C 33.010 228.547,31.787 228.155,31.281 227.958 C 30.776 227.761,29.957 227.600,29.461 227.600 C 28.966 227.600,28.389 227.438,28.180 227.241 C 27.750 226.835,25.309 226.441,21.871 226.224 C 20.591 226.142,19.436 225.969,19.305 225.838 C 19.174 225.707,16.127 225.600,12.533 225.600 L 6.000 225.600 6.000 230.776 " stroke="none" fill="#fbd441" fill-rule="evenodd"></path><path id="path4" d="M152.000 247.954 C 152.000 284.888,151.871 283.235,155.025 286.743 C 161.228 293.643,172.484 291.299,175.189 282.543 C 175.975 279.995,176.000 278.938,176.000 247.558 L 176.000 215.200 164.000 215.200 L 152.000 215.200 152.000 247.954 M108.732 216.202 C 108.535 216.399,106.631 216.751,101.000 217.631 C 97.848 218.124,92.714 219.303,88.738 220.446 L 86.076 221.211 85.808 225.306 C 85.661 227.558,85.599 241.190,85.670 255.600 L 85.800 281.800 86.860 283.800 C 91.756 293.036,104.412 292.991,108.493 283.723 L 109.516 281.400 109.744 248.700 C 109.972 215.893,109.944 214.989,108.732 216.202 M218.000 248.485 C 218.000 270.497,218.135 280.699,218.440 281.640 C 221.973 292.572,234.979 294.202,240.723 284.432 L 241.800 282.600 242.098 252.800 C 242.425 220.054,242.475 221.382,240.904 221.079 C 240.297 220.962,239.125 220.671,238.300 220.433 C 235.042 219.493,233.616 219.156,228.915 218.214 C 226.229 217.676,222.674 217.113,221.015 216.963 L 218.000 216.690 218.000 248.485 " stroke="none" fill="#8c5c44" fill-rule="evenodd"></path></g></svg>