<?xml version="1.0" standalone="no"?>
<!DOCTYPE svg PUBLIC "-//W3C//DTD SVG 20010904//EN"
 "http://www.w3.org/TR/2001/REC-SVG-20010904/DTD/svg10.dtd">
<svg version="1.0" xmlns="http://www.w3.org/2000/svg"
 width="512.000000pt" height="512.000000pt" viewBox="0 0 512.000000 512.000000"
 preserveAspectRatio="xMidYMid meet">

<g transform="translate(0.000000,512.000000) scale(0.100000,-0.100000)"
fill="#000000" stroke="none">
<path d="M829 4850 c-125 -131 -191 -276 -193 -423 -1 -83 -2 -88 -21 -82 -72
21 -161 35 -231 35 -73 0 -83 -2 -104 -25 -22 -23 -23 -30 -17 -127 9 -167 59
-299 151 -396 50 -54 50 -55 21 -49 -75 15 -245 29 -277 23 -62 -11 -73 -34
-71 -144 5 -223 77 -415 204 -545 l67 -67 -109 6 -108 7 -32 -32 -32 -32 7
-97 c17 -234 86 -413 204 -531 l67 -67 -110 4 c-99 4 -112 2 -135 -16 -24 -19
-25 -25 -24 -119 2 -161 44 -319 116 -438 l40 -68 -22 -36 c-41 -68 -111 -223
-140 -309 -57 -171 -74 -279 -74 -477 0 -169 1 -184 26 -253 35 -96 76 -159
154 -232 132 -123 222 -150 512 -150 189 0 203 1 222 20 24 24 27 77 6 106
-13 18 -31 19 -238 24 l-224 5 -76 38 c-179 88 -250 242 -234 507 32 506 341
978 798 1215 l108 56 0 -309 c0 -347 5 -385 62 -439 53 -50 95 -67 168 -67
117 0 202 69 220 180 6 32 10 213 10 402 l0 342 183 -2 182 -3 5 -390 c4 -338
7 -394 22 -420 81 -147 315 -149 399 -2 l24 42 3 387 3 388 162 0 c89 0 172
-3 185 -6 l22 -6 0 -374 c0 -316 2 -380 15 -412 36 -84 106 -126 210 -126 109
0 182 49 214 143 7 23 11 141 11 353 l0 319 108 -56 c326 -169 601 -485 721
-828 64 -184 96 -434 73 -582 -23 -144 -123 -276 -249 -327 l-58 -23 -1262 -5
c-1181 -5 -1263 -6 -1280 -22 -22 -23 -21 -83 3 -109 17 -19 44 -19 1274 -19
1249 0 1258 0 1326 21 200 61 346 221 389 424 25 119 15 378 -21 519 l-6 24
154 4 154 3 75 37 c138 68 236 200 259 348 6 40 10 419 10 1002 l0 937 41 38
c96 89 189 247 226 383 24 89 24 290 -1 380 -24 89 -90 224 -122 249 -33 26
-54 26 -87 1 -44 -35 -43 -54 7 -154 82 -163 95 -320 40 -485 -34 -101 -66
-153 -150 -241 -39 -41 -78 -88 -87 -105 -13 -26 -15 -158 -20 -1015 -5 -1105
0 -1035 -79 -1125 -22 -25 -64 -58 -92 -73 -48 -25 -60 -27 -211 -30 l-160 -3
-22 55 -21 56 157 0 c143 0 161 2 201 23 24 12 58 39 74 60 l31 39 5 996 5
997 27 58 c17 35 56 88 103 137 157 165 200 353 124 555 -24 65 -91 159 -144
203 -57 47 -144 90 -216 107 -97 22 -1796 22 -1884 0 -100 -26 -165 -63 -241
-139 -109 -109 -162 -247 -150 -391 11 -137 64 -243 180 -360 111 -111 106
-78 106 -740 l0 -565 -55 0 -55 0 0 555 c0 460 -2 562 -14 590 -8 19 -51 72
-94 119 -124 131 -182 270 -182 436 0 284 205 541 483 605 59 14 181 15 990
13 l922 -3 78 -27 c42 -16 86 -28 96 -28 29 0 60 31 67 67 9 46 -25 75 -127
110 l-84 28 -945 3 c-847 2 -953 1 -1020 -14 -300 -66 -533 -299 -594 -596
-53 -256 19 -503 204 -701 l70 -75 0 -541 0 -541 -299 0 -298 0 42 84 c52 104
84 229 92 356 8 126 2 147 -44 166 -28 12 -57 14 -137 8 l-101 -6 42 34 c136
108 228 320 240 554 7 129 0 149 -57 164 -41 11 -224 -1 -288 -19 l-33 -10 52
57 c91 99 144 240 156 409 6 89 5 92 -20 117 -24 24 -33 26 -104 26 -68 0
-174 -16 -234 -35 -18 -6 -19 0 -19 78 0 47 -7 107 -16 138 -27 91 -92 205
-161 279 -57 62 -69 70 -101 70 -32 0 -44 -8 -93 -60z m190 -270 c22 -47 26
-68 26 -145 0 -85 -3 -96 -37 -165 -20 -41 -50 -90 -66 -109 l-29 -35 -32 47
c-18 26 -46 77 -63 114 -58 123 -38 253 59 384 l45 61 35 -48 c19 -27 47 -74
62 -104z m3393 -91 c80 -17 139 -52 196 -113 72 -79 95 -146 90 -256 -6 -109
-34 -166 -134 -272 -81 -84 -126 -165 -144 -257 -6 -34 -10 -400 -10 -1007 0
-932 0 -954 -19 -964 -12 -6 -95 -10 -200 -10 l-180 0 -15 28 c-8 16 -42 65
-75 109 -286 387 -754 652 -1213 688 l-88 7 0 572 c0 623 0 627 -57 726 -15
24 -61 81 -104 126 -93 100 -122 162 -122 269 -1 125 55 233 156 300 99 65 72
64 1014 64 595 1 868 -2 905 -10z m-3901 -273 c87 -19 177 -65 219 -112 44
-51 86 -144 100 -223 6 -34 9 -65 6 -68 -12 -12 -151 21 -213 51 -106 51 -170
140 -199 275 -22 105 -26 101 87 77z m907 -41 c-19 -124 -79 -234 -154 -283
-51 -34 -139 -66 -217 -77 -54 -8 -55 -5 -36 87 37 173 139 275 313 313 106
23 104 24 94 -40z m-578 -573 l0 -55 -67 63 c-38 35 -69 64 -70 65 -1 0 29 -4
68 -9 l69 -10 0 -54z m247 35 c-21 -17 -51 -48 -67 -67 l-29 -35 -1 62 0 62
43 4 c100 9 96 10 54 -26z m-620 -22 c199 -62 307 -190 354 -417 28 -139 29
-136 -33 -131 -82 7 -207 40 -274 73 -87 43 -155 114 -203 213 -39 79 -71 201
-71 268 l0 32 74 -6 c40 -4 109 -18 153 -32z m1128 -17 c-42 -334 -206 -493
-549 -532 l-49 -6 6 69 c12 140 72 282 155 365 84 84 259 153 395 155 l49 1
-7 -52z m-758 -692 c2 -2 3 -27 1 -54 l-3 -51 -63 61 -63 61 62 -7 c34 -3 64
-8 66 -10z m246 -22 c-24 -19 -54 -50 -68 -67 l-25 -32 0 62 0 62 33 4 c17 2
48 4 67 5 l35 2 -42 -36z m-664 -5 c225 -52 351 -187 401 -430 26 -126 26
-141 -2 -135 -13 3 -50 8 -83 11 -144 16 -294 88 -364 175 -69 86 -131 259
-131 366 l0 42 48 -5 c26 -3 85 -13 131 -24z m1175 -31 c-18 -146 -72 -283
-141 -359 -47 -52 -58 -58 -170 -80 -51 -11 -137 -35 -190 -54 l-96 -34 7 71
c7 81 45 200 83 265 39 67 114 135 188 171 79 39 200 70 273 71 l53 1 -7 -52z
m-1209 -707 c50 -10 116 -30 148 -44 l57 -26 -87 -85 c-49 -47 -104 -105 -123
-130 -19 -25 -39 -45 -43 -46 -12 0 -62 116 -77 178 -7 30 -16 80 -19 113 l-7
59 30 0 c17 0 72 -9 121 -19z"/>
<path d="M4153 4228 c-25 -12 -45 -60 -36 -86 12 -33 36 -52 67 -52 37 0 49 7
65 37 16 31 14 57 -6 81 -22 26 -61 35 -90 20z"/>
<path d="M2792 4094 c-33 -23 -31 -86 4 -113 35 -27 59 -26 89 4 67 66 -15
164 -93 109z"/>
<path d="M3858 3273 c-47 -56 -13 -133 58 -133 23 0 64 47 64 73 0 13 -9 36
-21 51 -25 31 -77 36 -101 9z"/>
<path d="M2999 2951 c-50 -40 -17 -131 48 -131 32 0 73 42 73 75 0 33 -41 75
-73 75 -14 0 -35 -8 -48 -19z"/>
<path d="M3995 2335 c-67 -66 15 -164 93 -109 16 11 22 25 22 52 0 43 -7 55
-37 71 -33 17 -51 14 -78 -14z"/>
</g>
</svg>
